<svg width="320" height="420" viewBox="0 0 320 420" fill="none" xmlns="http://www.w3.org/2000/svg">
  <defs>
    <linearGradient id="hood" x1="60" y1="40" x2="260" y2="360" gradientUnits="userSpaceOnUse">
      <stop stop-color="#111111"/>
      <stop offset="1" stop-color="#1f1f1f"/>
    </linearGradient>
    <linearGradient id="maiz" x1="160" y1="70" x2="160" y2="260" gradientUnits="userSpaceOnUse">
      <stop stop-color="#FACC15"/>
      <stop offset="1" stop-color="#FBBF24"/>
    </linearGradient>
    <linearGradient id="glow" x1="20" y1="380" x2="300" y2="380" gradientUnits="userSpaceOnUse">
      <stop stop-color="#14532D" stop-opacity="0"/>
      <stop offset="0.5" stop-color="#14532D" stop-opacity="0.7"/>
      <stop offset="1" stop-color="#14532D" stop-opacity="0"/>
    </linearGradient>
    <filter id="shadow" x="0" y="0" width="320" height="420" color-interpolation-filters="sRGB" filterUnits="userSpaceOnUse">
      <feDropShadow dx="0" dy="15" stdDeviation="18" flood-color="#000000" flood-opacity="0.35"/>
    </filter>
  </defs>
  <rect width="320" height="420" rx="36" fill="#0F0F0F"/>
  <rect x="18" y="340" width="284" height="32" rx="12" fill="url(#glow)"/>
  <g filter="url(#shadow)">
    <path d="M85 135c0-52 32-92 75-92s75 40 75 92v78c0 17-6 33-17 45l-39 40c-11 11-28 11-39 0l-38-40c-11-12-18-28-18-45v-78Z" fill="url(#hood)"/>
    <path d="M98 148c0-40 27-73 62-73s62 33 62 73v60c0 13-5 26-13 35l-32 35c-8 9-22 9-30 0l-31-35c-9-9-14-22-14-35v-60Z" fill="url(#maiz)" stroke="#14532D" stroke-width="6"/>
    <path d="M105 170c0-28 22-50 55-50s55 22 55 50-22 50-55 50-55-22-55-50Z" fill="#FDF7E3" opacity="0.14"/>
    <path d="M116 214c0-18 16-32 44-32s44 14 44 32-16 32-44 32-44-14-44-32Z" fill="#0F0F0F" opacity="0.8"/>
    <path d="M132 195c0-6 6-11 14-11s14 5 14 11-6 11-14 11-14-5-14-11Z" fill="#0F0F0F"/>
    <path d="M166 195c0-6 6-11 14-11s14 5 14 11-6 11-14 11-14-5-14-11Z" fill="#0F0F0F"/>
    <circle cx="146" cy="193" r="5" fill="#FDF7E3"/>
    <circle cx="182" cy="193" r="5" fill="#FDF7E3"/>
    <path d="M143 228c4 5 11 8 17 8s13-3 17-8" stroke="#0F0F0F" stroke-width="6" stroke-linecap="round"/>
    <path d="M160 82c-24 0-44 10-56 28-4 6-7 13-9 21-4 17 14 10 20-6 10-29 52-33 72-11l6 6c7 7 19 2 16-8-2-6-5-12-9-17-12-13-26-21-40-21Z" fill="#FDF7E3" opacity="0.08"/>
    <path d="M126 268c-8 0-14 7-14 15 0 5 3 10 8 13l29 15c7 4 15 4 22 0l30-15c4-3 7-8 7-13 0-8-6-15-14-15h-68Z" fill="#0F0F0F" stroke="#14532D" stroke-width="6"/>
    <path d="M106 140c-12-9-21-21-24-36-1-4-1-8 2-10 3-2 7-1 11 1 18 14 42 26 65 26 24 0 47-13 63-27 3-2 7-4 11-2 3 2 4 6 3 10-3 14-10 26-21 35l-6 4c-7 5-15 9-22 12-18 7-38 6-56-1-8-3-16-7-23-12l-3-2Z" fill="#0F0F0F" opacity="0.65"/>
    <path d="M114 283c-9 0-17 7-17 16v24c0 8 6 15 14 16l25 5c16 3 32 3 48 0l24-5c8-1 14-8 14-16v-24c0-9-8-16-17-16h-95Z" fill="#FDF7E3" stroke="#14532D" stroke-width="6"/>
    <path d="M139 115c0-4 3-7 7-7h28c4 0 7 3 7 7 0 9-7 17-15 17h-12c-8 0-15-8-15-17Z" fill="#14532D"/>
  </g>
  <text x="160" y="370" text-anchor="middle" fill="#FDF7E3" font-family="Arial Black, sans-serif" font-size="20" letter-spacing="3">HOODIE CORN</text>
</svg>
